<svg version="1.1" id="Layer_1" xmlns="http://www.w3.org/2000/svg" xmlns:xlink="http://www.w3.org/1999/xlink" x="0px" y="0px"
	 width="100%" viewBox="0 0 809 253" enable-background="new 0 0 809 253" xml:space="preserve">
<path fill="#FDFEFF" opacity="1.000000" stroke="none" 
	d="
M523.000000,254.000000 
	C348.707550,254.000000 174.915131,254.000000 1.061344,254.000000 
	C1.061344,169.727448 1.061344,85.454826 1.061344,1.091104 
	C270.542450,1.091104 540.084961,1.091104 809.813721,1.091104 
	C809.813721,85.333008 809.813721,169.666458 809.813721,254.000000 
	C714.454773,254.000000 618.977417,254.000000 523.000000,254.000000 
M178.601685,185.227127 
	C179.357269,184.887085 180.148376,184.608826 180.863235,184.197922 
	C196.257767,175.349350 212.974869,172.551544 230.017471,176.350113 
	C239.537903,178.472092 248.444656,183.635437 257.405518,187.896057 
	C265.748047,191.862717 274.152771,195.650604 283.502960,195.629135 
	C304.835175,195.580170 319.219269,182.714264 332.671387,168.290283 
	C329.959564,168.784912 327.660400,170.318649 325.138672,170.922028 
	C310.538696,174.415405 296.535309,173.086044 283.287201,165.502304 
	C276.502563,161.618484 269.566650,157.977554 262.558655,154.510712 
	C253.335968,149.948242 243.545059,147.212753 233.195923,147.502655 
	C206.878464,148.239822 190.949341,164.472351 177.615723,185.138641 
	C177.597565,185.391113 177.579391,185.643570 177.561218,185.896027 
	C177.693207,185.845795 177.934204,185.803436 177.938492,185.744003 
	C177.958023,185.473495 177.910934,185.198181 178.601685,185.227127 
M354.203644,129.159348 
	C336.763733,138.220200 319.672150,137.143387 302.793304,127.537735 
	C296.722778,124.083046 290.641632,120.591522 284.319244,117.644798 
	C260.253540,106.428314 237.334961,106.693123 216.653381,125.337738 
	C209.661987,131.640518 203.710999,138.851212 199.144684,147.219421 
	C200.746628,146.976349 202.003479,146.348816 203.270538,145.742554 
	C224.196854,135.729980 245.324142,133.973511 266.675171,144.358521 
	C272.953857,147.412445 278.958130,151.072617 285.360565,153.820221 
	C295.000031,157.957031 305.060608,159.995392 315.511932,157.003311 
	C331.264923,152.493393 343.266479,142.303574 354.462189,130.960953 
	C354.878448,130.539230 354.665314,129.496277 355.003693,128.832626 
	C355.003693,128.832626 355.219299,128.745056 355.219299,128.745056 
	C355.219299,128.745056 354.825958,128.800949 354.203644,129.159348 
M299.558990,77.840805 
	C262.527222,63.738937 237.437042,81.225945 219.755936,109.396248 
	C222.164551,108.550858 223.829254,108.119606 225.361710,107.404839 
	C239.477448,100.821014 254.198349,98.659958 269.630646,100.929153 
	C280.985779,102.598854 290.388245,108.725876 300.281128,113.806465 
	C314.508545,121.113098 329.082703,124.080017 344.304779,116.694153 
	C354.903870,111.551376 364.233063,104.671761 372.337555,96.134956 
	C372.711578,95.740974 372.724030,95.003731 373.147308,93.652390 
	C370.819183,94.248520 369.081635,94.564575 367.432404,95.135818 
	C352.283325,100.383034 337.976013,98.178139 324.140320,90.594414 
	C316.271912,86.281517 308.223633,82.296806 299.558990,77.840805 
M127.537979,166.851044 
	C127.862587,169.086838 127.621132,171.621918 128.615845,173.503433 
	C131.855453,179.631165 134.210693,187.833847 139.438553,190.852585 
	C144.705292,193.893768 153.007828,191.917999 159.959900,191.637390 
	C161.784927,191.563705 164.185913,190.044464 165.200195,188.467346 
	C168.607208,183.169846 171.669067,177.627396 174.490814,171.992310 
	C175.215210,170.545670 175.178146,168.109772 174.447830,166.650284 
	C171.626648,161.012360 168.554703,155.477341 165.186691,150.150238 
	C164.253098,148.673569 162.020996,147.277267 160.302826,147.171387 
	C154.339905,146.803879 148.325027,146.773376 142.365189,147.159348 
	C140.493591,147.280563 138.061661,148.682526 137.045074,150.249893 
	C133.710800,155.390747 130.909210,160.877090 127.537979,166.851044 
M184.944366,68.974449 
	C183.244690,69.945206 181.119949,70.562202 179.947144,71.971443 
	C178.279526,73.975204 177.639511,76.828972 175.987793,78.852051 
	C168.990631,87.422424 170.222183,95.035042 175.956528,104.268593 
	C180.395294,111.415985 184.521301,113.701607 192.908325,113.958481 
	C203.499619,114.282867 209.120880,111.141975 213.795807,101.524696 
	C217.538910,93.824387 219.296616,87.867851 213.411316,81.035973 
	C212.140396,79.560669 211.298569,77.641197 210.544937,75.808762 
	C208.258179,70.248611 204.644882,67.718361 198.301910,68.834465 
	C194.267807,69.544296 190.008286,68.973198 184.944366,68.974449 
M126.775375,66.955475 
	C128.710403,70.446159 131.157043,73.754494 132.479095,77.463661 
	C135.708817,86.524864 141.753967,88.439964 151.057938,88.532005 
	C160.720657,88.627602 165.639481,85.608307 170.206573,77.224190 
	C174.650467,69.066254 176.483902,62.531982 170.081329,54.994987 
	C168.073853,52.631817 167.215240,49.307407 165.268143,46.872963 
	C164.028763,45.323368 161.809280,43.786907 159.933319,43.659695 
	C153.968521,43.255219 147.955154,43.402946 141.968933,43.596302 
	C140.512039,43.643360 138.371368,44.272781 137.763824,45.332878 
	C133.819260,52.215740 130.211365,59.291546 126.775375,66.955475 
M126.734894,132.710159 
	C123.730347,123.375885 117.405678,119.758934 107.828415,121.708572 
	C107.348877,121.806190 106.814949,121.803024 106.334724,121.706139 
	C97.780434,119.980354 93.941963,124.453720 89.621315,131.490280 
	C83.850021,140.889343 84.151260,148.020844 90.050667,157.107712 
	C94.383064,163.780899 98.168518,167.265991 106.641647,166.726517 
	C120.608635,165.837280 120.113647,166.149200 127.562454,154.259979 
	C132.353973,146.612122 133.088577,140.195709 126.734894,132.710159 
M160.963196,139.992630 
	C162.353073,139.077209 164.197540,138.463470 165.044281,137.187576 
	C167.241104,133.877365 168.582275,129.947250 171.017975,126.858307 
	C176.227280,120.251846 174.252365,114.912033 170.997192,107.754143 
	C166.131165,97.054039 159.434723,94.033775 148.331039,94.857788 
	C141.523224,95.363007 137.490524,96.678581 134.024780,103.091438 
	C126.333122,117.323776 126.165436,116.905151 133.446671,131.098495 
	C136.840088,137.713287 140.670609,141.544342 148.608856,140.103378 
	C152.312546,139.431046 156.240051,139.991592 160.963196,139.992630 
M123.351715,75.031349 
	C121.857819,70.514961 118.678528,69.190216 114.126686,69.684776 
	C110.836021,70.042305 107.401070,70.200706 104.160912,69.662544 
	C97.113487,68.492020 94.111633,72.130997 90.308151,77.633987 
	C83.324188,87.738594 83.263710,96.081497 90.377434,106.166130 
	C94.216743,111.608841 97.453415,113.699196 104.177704,114.456581 
	C116.708557,115.867981 123.576065,111.351448 128.571915,100.099327 
	C131.369720,93.797882 132.587769,89.065491 128.154495,83.480232 
	C126.318756,81.167488 125.183601,78.298660 123.351715,75.031349 
M476.552795,126.676216 
	C476.552795,124.535553 476.552795,122.394890 476.552795,120.254219 
	C477.014771,120.214432 477.476715,120.174644 477.938690,120.134857 
	C482.291412,126.400108 486.794769,132.567963 490.934448,138.970947 
	C493.064575,142.265656 495.427246,143.529053 499.112549,141.962234 
	C499.112549,130.437759 499.112549,119.044113 499.112549,107.282684 
	C497.005280,107.386658 495.278198,107.471870 493.100586,107.579308 
	C493.100586,115.297142 493.100586,122.509926 493.100586,129.722702 
	C487.799805,123.664001 483.247559,117.419243 479.093323,110.920067 
	C476.950836,107.568214 474.494904,106.441925 470.557495,107.860847 
	C470.557495,119.230064 470.557495,130.619904 470.557495,142.266174 
	C472.547943,142.266174 474.278046,142.266174 476.552795,142.266174 
	C476.552795,137.200974 476.552795,132.414597 476.552795,126.676216 
M480.430328,63.954582 
	C478.254974,60.372566 476.328033,56.359177 470.284302,58.697636 
	C470.284302,60.076054 470.284302,61.698124 470.284302,63.320194 
	C470.284302,73.107071 470.284302,82.893951 470.284302,92.868774 
	C472.585968,92.868774 474.328156,92.868774 476.796265,92.868774 
	C476.796265,85.453049 476.796265,78.302551 476.796265,71.152054 
	C482.235718,77.158905 486.743134,83.280273 490.828827,89.671211 
	C493.006195,93.077118 495.515381,93.920197 499.461884,92.526863 
	C499.461884,86.851875 499.461884,81.209648 499.461884,75.567421 
	C499.461884,69.816933 499.461884,64.066444 499.461884,58.252872 
	C497.070770,58.252872 495.460815,58.252872 493.193573,58.252872 
	C493.193573,65.797523 493.193573,73.139175 493.193573,80.480835 
	C492.851074,80.559143 492.508545,80.637451 492.166046,80.715759 
	C488.400513,75.320488 484.634949,69.925217 480.430328,63.954582 
M193.300735,137.877960 
	C196.228424,132.446945 199.156113,127.015930 202.434982,120.933464 
	C195.817795,120.933464 190.317398,120.713097 184.854996,121.071693 
	C183.276321,121.175316 181.251175,122.600403 180.385895,124.007179 
	C177.076996,129.386673 174.092026,134.971130 171.144424,140.562500 
	C170.513824,141.758682 169.881454,143.638824 170.382477,144.633209 
	C173.190079,150.205338 176.344849,155.602539 179.930099,162.046234 
	C184.636292,153.522812 188.779816,146.018417 193.300735,137.877960 
M429.865814,81.393196 
	C430.380371,82.619080 430.785583,83.905701 431.427338,85.060936 
	C435.368652,92.155701 443.285797,95.430740 451.514313,93.431496 
	C459.955078,91.380684 464.957397,85.077942 465.230957,76.149124 
	C465.492706,67.604660 460.736206,60.449371 452.847137,58.329597 
	C439.847107,54.836510 426.408173,63.252647 429.865814,81.393196 
M681.680115,77.182388 
	C681.459595,78.181061 681.239075,79.179733 680.795471,81.189125 
	C675.861755,74.096451 671.366394,67.965820 667.255432,61.587406 
	C665.117004,58.269398 662.700684,57.199493 659.159180,58.545731 
	C659.159180,70.146683 659.159180,81.536324 659.159180,93.177612 
	C661.154968,93.078957 662.760986,92.999565 665.063965,92.885727 
	C665.063965,85.180153 665.063965,77.730659 665.063965,69.081779 
	C670.304871,76.696426 674.909790,83.014801 679.084473,89.605721 
	C681.253601,93.030304 683.769958,93.903412 687.494751,92.611916 
	C687.494751,81.169273 687.494751,69.786362 687.494751,58.026646 
	C685.411682,58.119633 683.699829,58.196049 682.157471,58.264900 
	C681.923584,59.137890 681.766113,59.455582 681.763855,59.774368 
	C681.725464,65.263184 681.706177,70.752129 681.680115,77.182388 
M399.502716,177.784943 
	C399.807495,178.906235 400.034912,180.055573 400.429413,181.144318 
	C403.305481,189.081177 410.793549,193.248077 420.016510,192.080902 
	C428.619446,190.992188 434.286835,184.859940 435.207031,175.644379 
	C436.050354,167.198868 431.144073,159.467361 423.411163,156.979660 
	C411.665558,153.201065 397.533905,160.358246 399.502716,177.784943 
M653.036621,79.559334 
	C652.317810,74.915375 652.650208,69.747856 650.654236,65.739929 
	C646.873779,58.148956 637.143005,55.671787 628.443970,58.894470 
	C620.481323,61.844345 616.409973,69.602310 617.815735,79.146347 
	C619.050659,87.530304 625.409973,93.301422 634.130737,93.952171 
	C643.356567,94.640610 650.252686,89.637878 653.036621,79.559334 
M567.210938,187.738251 
	C568.066040,186.725204 569.041992,185.790436 569.756897,184.686554 
	C575.030823,176.542862 572.975098,164.418304 565.478943,159.173203 
	C557.700745,153.730774 545.851868,155.386627 540.300049,162.691910 
	C535.086304,169.552307 535.729065,180.997955 541.670532,187.095917 
	C548.078247,193.672409 558.473328,194.144196 567.210938,187.738251 
M555.428284,113.141739 
	C557.593933,113.145470 559.767517,113.031410 561.923523,113.177231 
	C566.537903,113.489311 567.442749,111.457329 565.921875,107.559448 
	C557.732788,107.559448 549.804688,107.559448 541.563232,107.559448 
	C541.563232,119.235054 541.563232,130.620056 541.563232,142.237274 
	C550.060913,142.237274 558.272766,142.237274 566.392700,142.237274 
	C567.768738,137.843964 566.154724,136.477966 562.111145,136.686005 
	C557.518555,136.922272 552.904480,136.740570 548.159424,136.740570 
	C548.159424,133.373459 548.159424,130.640289 548.159424,127.540077 
	C552.307556,127.540077 556.125488,127.368843 559.921143,127.586143 
	C564.077881,127.824127 565.392761,126.249001 563.875916,121.806793 
	C558.681580,121.806793 553.436279,121.806793 548.152100,121.806793 
	C548.152100,118.659912 548.152100,116.077286 548.152100,113.140739 
	C550.469971,113.140739 552.456665,113.140739 555.428284,113.141739 
M508.700256,92.972977 
	C513.846191,92.942078 519.033997,93.315605 524.128479,92.787819 
	C532.262939,91.945053 537.233215,86.099533 537.821106,77.565865 
	C538.452637,68.397514 534.203552,60.883717 526.581177,59.332794 
	C520.672974,58.130646 514.519531,58.133667 508.017822,57.560680 
	C508.017822,69.786545 508.017822,81.034264 508.700256,92.972977 
M401.761230,121.605888 
	C404.290161,123.357170 406.681305,125.375168 409.391632,126.775352 
	C411.559967,127.895538 414.300995,127.924141 416.437653,129.082886 
	C417.940399,129.897827 419.905212,131.922562 419.754730,133.178329 
	C419.584290,134.600281 417.389709,136.669296 415.882599,136.849976 
	C413.037323,137.191116 409.740509,137.064209 407.199341,135.896103 
	C403.039795,133.984055 401.451477,135.529144 400.339539,139.455566 
	C406.666779,143.217758 413.309784,144.465744 420.346771,142.106339 
	C424.282471,140.786743 426.684937,137.911392 426.932983,133.589508 
	C427.187622,129.152405 425.515747,125.740028 421.256836,124.054298 
	C418.492889,122.960274 415.384705,122.583328 412.827484,121.168221 
	C410.813538,120.053741 409.405670,117.844032 407.728607,116.120789 
	C410.040741,114.912437 412.282684,112.916107 414.683411,112.702263 
	C417.463074,112.454666 420.382355,113.774696 423.547577,114.482742 
	C424.254791,112.895317 424.899567,111.448067 426.209900,108.506851 
	C420.418610,107.929581 415.380707,106.654320 410.507904,107.117188 
	C402.574371,107.870834 399.588928,113.054543 401.761230,121.605888 
M602.328003,188.921677 
	C603.709961,186.701920 606.156494,184.541489 606.284058,182.251831 
	C606.759521,173.717575 606.473877,165.140915 606.473877,156.577911 
	C604.439209,156.577911 602.708496,156.577911 600.480957,156.577911 
	C600.480957,163.880386 600.613037,170.835617 600.439087,177.783173 
	C600.300476,183.319672 597.045227,186.489197 592.157532,186.334351 
	C587.448303,186.185135 584.759521,183.165588 584.670044,177.655777 
	C584.575500,171.837982 584.570007,166.016190 584.676270,160.198883 
	C584.722351,157.679245 584.347229,156.121506 581.233154,156.131454 
	C577.944641,156.141983 577.961121,158.050720 577.981934,160.380127 
	C578.035522,166.365250 577.911499,172.352722 578.018677,178.336411 
	C578.172180,186.904938 583.234985,192.092163 591.814026,191.871033 
	C595.152161,191.785004 598.453796,190.286240 602.328003,188.921677 
M502.369324,189.829926 
	C503.460083,190.497269 504.618256,191.786285 505.624786,191.677155 
	C506.931396,191.535507 509.000397,190.463852 509.204895,189.474808 
	C510.176056,184.778610 513.082275,183.822495 517.236694,184.337662 
	C518.872681,184.540543 520.690369,183.975967 522.178284,184.484222 
	C523.778259,185.030777 526.041870,186.196289 526.354492,187.492432 
	C527.509766,192.282745 530.418213,192.394409 534.290039,191.408646 
	C534.290039,190.816376 534.424622,190.286758 534.270264,189.862091 
	C530.590759,179.736221 527.010864,169.569595 523.024536,159.565094 
	C522.471497,158.177155 519.874390,156.840393 518.242493,156.862762 
	C516.647034,156.884644 514.203003,158.325974 513.634460,159.746002 
	C509.753845,169.438339 506.269714,179.289413 502.369324,189.829926 
M615.403015,178.808426 
	C613.969910,182.947800 612.536865,187.087189 611.015259,191.482162 
	C615.199036,192.181320 618.113281,192.374084 619.244568,187.703094 
	C619.582153,186.309082 622.073547,184.908005 623.807739,184.509583 
	C626.179199,183.964752 628.847900,184.004364 631.239624,184.506165 
	C632.835449,184.840973 635.141357,186.185654 635.449768,187.478928 
	C636.596436,192.287827 639.503418,192.401825 643.864868,191.268234 
	C639.792664,180.225143 635.895752,169.305038 631.602844,158.542938 
	C631.157410,157.426270 628.323547,156.698395 626.662537,156.804291 
	C625.268311,156.893204 623.271484,158.169479 622.744751,159.424896 
	C620.174866,165.549927 618.008789,171.844391 615.403015,178.808426 
M439.531799,136.982254 
	C443.229218,136.334412 446.921692,135.656357 450.625702,135.048813 
	C453.320190,134.606857 455.175720,135.588516 455.697479,138.420349 
	C456.605957,143.351517 459.653595,143.157303 463.797333,141.820511 
	C459.719330,130.806503 455.852142,120.072838 451.659943,109.467667 
	C451.220062,108.354874 448.868347,107.461914 447.391785,107.443993 
	C445.884460,107.425682 443.417297,108.243065 442.993317,109.328522 
	C438.797455,120.070915 434.938965,130.945068 430.957001,141.858582 
	C437.509705,143.153275 437.509705,143.153275 439.531799,136.982254 
M663.863098,163.432114 
	C663.141296,170.464172 664.815308,173.258789 671.270874,175.521866 
	C673.774963,176.399719 676.540894,176.723328 678.828064,177.962692 
	C680.464783,178.849594 681.503174,180.840637 682.808533,182.339035 
	C681.076599,183.608429 679.347839,185.927567 677.612000,185.932892 
	C673.771179,185.944702 669.926697,184.793335 665.438599,184.002747 
	C664.902649,184.904404 664.024292,186.382126 662.904053,188.266800 
	C669.837036,192.130112 676.606934,193.316071 683.730042,190.653488 
	C687.515076,189.238663 689.399353,186.084946 689.492371,182.091782 
	C689.589172,177.936401 687.964417,174.568588 683.889038,172.998917 
	C680.956360,171.869370 677.715088,171.442337 674.933105,170.056274 
	C673.159790,169.172699 671.974121,167.109589 670.524963,165.575302 
	C672.381714,164.303650 674.166138,162.121292 676.111755,161.966614 
	C679.299561,161.713150 682.592102,162.777557 686.121887,163.330215 
	C686.501831,162.651077 687.041138,161.835907 687.422363,160.952530 
	C687.672058,160.373749 687.692993,159.696243 687.804565,159.123749 
	C678.289001,153.588211 668.736755,155.091400 663.863098,163.432114 
M556.318054,58.015202 
	C554.605652,58.633675 551.799927,58.814972 551.350708,59.938534 
	C547.052612,70.687881 543.152771,81.596512 538.857910,93.219215 
	C542.459595,92.721443 546.154236,94.808823 547.057983,89.886330 
	C547.710449,86.332443 549.747742,85.360893 553.066101,85.745956 
	C555.038513,85.974831 557.183350,85.367416 559.022095,85.910255 
	C560.731018,86.414795 563.085999,87.665764 563.503052,89.076851 
	C564.915649,93.855690 567.903564,93.679115 571.986328,92.598030 
	C567.890808,81.530556 563.900208,70.629128 559.755615,59.786560 
	C559.448669,58.983570 558.034302,58.603935 556.318054,58.015202 
M444.705566,188.879089 
	C450.407135,193.029160 456.559723,193.125198 462.614746,190.165329 
	C468.353363,187.360107 469.228180,181.922775 469.066711,176.122589 
	C468.927856,171.133484 469.054169,166.137436 469.026520,161.144653 
	C468.996826,155.783051 468.672852,155.563492 462.890686,157.118210 
	C462.890686,159.478241 462.948578,161.950470 462.878815,164.419098 
	C462.728729,169.729065 463.011017,175.115555 462.191406,180.325195 
	C461.273407,186.159912 453.873383,188.740387 449.884399,184.597198 
	C447.951721,182.589783 446.969513,179.054001 446.761841,176.124756 
	C446.307007,169.709076 446.620972,163.238876 446.620972,156.648407 
	C444.160370,156.648407 442.303406,156.648407 440.293823,156.648407 
	C440.293823,164.702194 439.947113,172.359634 440.471497,179.956940 
	C440.669830,182.830231 442.879181,185.564697 444.705566,188.879089 
M413.623413,63.956818 
	C417.733429,63.956818 421.843445,63.956818 426.085602,63.956818 
	C426.085602,61.727673 426.085602,60.038597 426.085602,58.324146 
	C417.762177,58.324146 409.866516,58.324146 401.803802,58.324146 
	C401.803802,70.013237 401.803802,81.380829 401.803802,92.874374 
	C403.885529,92.874374 405.633972,92.874374 407.980804,92.874374 
	C407.980804,89.159500 408.068451,85.708481 407.952057,82.264359 
	C407.864594,79.676857 408.965759,78.667114 411.500427,78.774338 
	C414.153687,78.886581 416.865204,79.104607 419.454407,78.682404 
	C420.957977,78.437218 423.244995,77.232048 423.487732,76.097038 
	C424.224091,72.653954 421.318878,73.240814 419.246887,73.209389 
	C416.589478,73.169090 413.868896,73.532219 411.299652,73.054298 
	C410.049866,72.821815 408.559052,71.252357 408.118958,69.965996 
	C407.568481,68.356918 407.986603,66.416473 407.986603,64.270409 
	C409.781708,64.150154 411.223694,64.053551 413.623413,63.956818 
M523.934143,125.512802 
	C523.934143,121.613556 523.934143,117.714302 523.934143,113.368195 
	C528.286804,113.368195 531.730957,113.368195 535.444214,113.368195 
	C535.444214,111.182755 535.444214,109.465645 535.444214,107.672623 
	C525.268677,107.672623 515.414429,107.672623 505.554993,107.672623 
	C505.554993,109.699654 505.554993,111.299385 505.554993,113.195526 
	C509.540039,113.370621 513.259644,113.534058 517.393799,113.715714 
	C517.393799,123.505280 517.393799,132.761414 517.393799,142.244171 
	C519.735901,142.244171 521.610962,142.244171 523.934143,142.244171 
	C523.934143,136.762131 523.934143,131.634216 523.934143,125.512802 
M485.365173,185.327789 
	C485.365173,187.399185 485.365173,189.470596 485.365173,191.524323 
	C487.974487,191.524323 489.727448,191.524323 492.087769,191.524323 
	C492.087769,181.811447 492.087769,172.404190 492.087769,162.579651 
	C494.839752,162.579651 496.995148,162.421341 499.119202,162.612091 
	C503.765564,163.029343 504.604218,160.946320 503.187683,156.920776 
	C493.260345,156.920776 483.510315,156.920776 473.829590,156.920776 
	C472.268311,161.548401 474.067627,162.997269 478.298218,162.615585 
	C480.522766,162.414886 482.780365,162.580139 485.365448,162.580139 
	C485.365448,170.417740 485.365448,177.393005 485.365173,185.327789 
M580.233826,64.001755 
	C580.821106,65.504745 581.884521,66.997810 581.916077,68.512383 
	C582.084717,76.602547 581.995605,84.698090 581.995605,92.789009 
	C584.484131,92.789009 586.219055,92.789009 588.551880,92.789009 
	C588.551880,83.050560 588.551880,73.671227 588.551880,63.860771 
	C592.735840,63.860771 596.333435,63.860771 601.858337,63.860771 
	C600.067871,61.151535 599.088135,58.280148 597.997681,58.237480 
	C588.768921,57.876358 579.520020,58.031296 570.102600,58.031296 
	C570.102600,60.363621 570.102600,61.936569 570.102600,63.968838 
	C573.387329,63.968838 576.349121,63.968838 580.233826,64.001755 
M649.190979,179.480164 
	C649.190979,183.383652 649.190979,187.287140 649.190979,191.407120 
	C652.532532,191.307098 655.950989,193.238937 655.945007,188.219193 
	C655.933594,178.597427 656.041382,168.972992 655.792236,159.357620 
	C655.763916,158.265091 653.928406,156.639374 652.647644,156.285156 
	C650.288452,155.632721 649.091187,156.907684 649.149963,159.575195 
	C649.289001,165.876022 649.192322,172.182037 649.190979,179.480164 
M605.516235,92.444809 
	C607.487671,92.760704 609.459106,93.076591 611.509644,93.405151 
	C611.509644,81.184349 611.509644,69.813332 611.509644,58.224609 
	C609.427551,58.224609 607.676758,58.224609 605.279602,58.224609 
	C605.279602,69.522865 605.279602,80.582954 605.516235,92.444809 
M551.738953,103.937241 
	C555.854492,105.704742 557.511963,105.064438 561.196228,100.101654 
	C559.822815,99.235565 558.470032,98.382500 556.888611,97.385277 
	C555.150085,99.511772 553.589966,101.420097 551.738953,103.937241 
z"/>
<path fill="#086CB7" opacity="1.000000" stroke="none" 
	d="
M354.745483,128.742828 
	C354.665314,129.496277 354.878448,130.539230 354.462189,130.960953 
	C343.266479,142.303574 331.264923,152.493393 315.511932,157.003311 
	C305.060608,159.995392 295.000031,157.957031 285.360565,153.820221 
	C278.958130,151.072617 272.953857,147.412445 266.675171,144.358521 
	C245.324142,133.973511 224.196854,135.729980 203.270538,145.742554 
	C202.003479,146.348816 200.746628,146.976349 199.144684,147.219421 
	C203.710999,138.851212 209.661987,131.640518 216.653381,125.337738 
	C237.334961,106.693123 260.253540,106.428314 284.319244,117.644798 
	C290.641632,120.591522 296.722778,124.083046 302.793304,127.537735 
	C319.672150,137.143387 336.763733,138.220200 354.491272,128.970581 
	C354.778900,128.781799 354.745483,128.742828 354.745483,128.742828 
z"/>
<path fill="#076BB7" opacity="1.000000" stroke="none" 
	d="
M177.989609,184.987137 
	C190.949341,164.472351 206.878464,148.239822 233.195923,147.502655 
	C243.545059,147.212753 253.335968,149.948242 262.558655,154.510712 
	C269.566650,157.977554 276.502563,161.618484 283.287201,165.502304 
	C296.535309,173.086044 310.538696,174.415405 325.138672,170.922028 
	C327.660400,170.318649 329.959564,168.784912 332.671387,168.290283 
	C319.219269,182.714264 304.835175,195.580170 283.502960,195.629135 
	C274.152771,195.650604 265.748047,191.862717 257.405518,187.896057 
	C248.444656,183.635437 239.537903,178.472092 230.017471,176.350113 
	C212.974869,172.551544 196.257767,175.349350 180.863235,184.197922 
	C180.148376,184.608826 179.357269,184.887085 178.270813,185.090515 
	C177.939926,184.953888 177.989609,184.987137 177.989609,184.987137 
z"/>
<path fill="#61B5D1" opacity="1.000000" stroke="none" 
	d="
M299.907654,78.002556 
	C308.223633,82.296806 316.271912,86.281517 324.140320,90.594414 
	C337.976013,98.178139 352.283325,100.383034 367.432404,95.135818 
	C369.081635,94.564575 370.819183,94.248520 373.147308,93.652390 
	C372.724030,95.003731 372.711578,95.740974 372.337555,96.134956 
	C364.233063,104.671761 354.903870,111.551376 344.304779,116.694153 
	C329.082703,124.080017 314.508545,121.113098 300.281128,113.806465 
	C290.388245,108.725876 280.985779,102.598854 269.630646,100.929153 
	C254.198349,98.659958 239.477448,100.821014 225.361710,107.404839 
	C223.829254,108.119606 222.164551,108.550858 219.755936,109.396248 
	C237.437042,81.225945 262.527222,63.738937 299.907654,78.002556 
z"/>
<path fill="#076BB7" opacity="1.000000" stroke="none" 
	d="
M127.720428,166.540848 
	C130.909210,160.877090 133.710800,155.390747 137.045074,150.249893 
	C138.061661,148.682526 140.493591,147.280563 142.365189,147.159348 
	C148.325027,146.773376 154.339905,146.803879 160.302826,147.171387 
	C162.020996,147.277267 164.253098,148.673569 165.186691,150.150238 
	C168.554703,155.477341 171.626648,161.012360 174.447830,166.650284 
	C175.178146,168.109772 175.215210,170.545670 174.490814,171.992310 
	C171.669067,177.627396 168.607208,183.169846 165.200195,188.467346 
	C164.185913,190.044464 161.784927,191.563705 159.959900,191.637390 
	C153.007828,191.917999 144.705292,193.893768 139.438553,190.852585 
	C134.210693,187.833847 131.855453,179.631165 128.615845,173.503433 
	C127.621132,171.621918 127.862587,169.086838 127.720428,166.540848 
z"/>
<path fill="#066BB7" opacity="1.000000" stroke="none" 
	d="
M185.397110,68.975464 
	C190.008286,68.973198 194.267807,69.544296 198.301910,68.834465 
	C204.644882,67.718361 208.258179,70.248611 210.544937,75.808762 
	C211.298569,77.641197 212.140396,79.560669 213.411316,81.035973 
	C219.296616,87.867851 217.538910,93.824387 213.795807,101.524696 
	C209.120880,111.141975 203.499619,114.282867 192.908325,113.958481 
	C184.521301,113.701607 180.395294,111.415985 175.956528,104.268593 
	C170.222183,95.035042 168.990631,87.422424 175.987793,78.852051 
	C177.639511,76.828972 178.279526,73.975204 179.947144,71.971443 
	C181.119949,70.562202 183.244690,69.945206 185.397110,68.975464 
z"/>
<path fill="#066BB6" opacity="1.000000" stroke="none" 
	d="
M126.634300,66.629822 
	C130.211365,59.291546 133.819260,52.215740 137.763824,45.332878 
	C138.371368,44.272781 140.512039,43.643360 141.968933,43.596302 
	C147.955154,43.402946 153.968521,43.255219 159.933319,43.659695 
	C161.809280,43.786907 164.028763,45.323368 165.268143,46.872963 
	C167.215240,49.307407 168.073853,52.631817 170.081329,54.994987 
	C176.483902,62.531982 174.650467,69.066254 170.206573,77.224190 
	C165.639481,85.608307 160.720657,88.627602 151.057938,88.532005 
	C141.753967,88.439964 135.708817,86.524864 132.479095,77.463661 
	C131.157043,73.754494 128.710403,70.446159 126.634300,66.629822 
z"/>
<path fill="#056AB6" opacity="1.000000" stroke="none" 
	d="
M126.935867,133.016342 
	C133.088577,140.195709 132.353973,146.612122 127.562454,154.259979 
	C120.113647,166.149200 120.608635,165.837280 106.641647,166.726517 
	C98.168518,167.265991 94.383064,163.780899 90.050667,157.107712 
	C84.151260,148.020844 83.850021,140.889343 89.621315,131.490280 
	C93.941963,124.453720 97.780434,119.980354 106.334724,121.706139 
	C106.814949,121.803024 107.348877,121.806190 107.828415,121.708572 
	C117.405678,119.758934 123.730347,123.375885 126.935867,133.016342 
z"/>
<path fill="#61B5D1" opacity="1.000000" stroke="none" 
	d="
M160.514648,139.992981 
	C156.240051,139.991592 152.312546,139.431046 148.608856,140.103378 
	C140.670609,141.544342 136.840088,137.713287 133.446671,131.098495 
	C126.165436,116.905151 126.333122,117.323776 134.024780,103.091438 
	C137.490524,96.678581 141.523224,95.363007 148.331039,94.857788 
	C159.434723,94.033775 166.131165,97.054039 170.997192,107.754143 
	C174.252365,114.912033 176.227280,120.251846 171.017975,126.858307 
	C168.582275,129.947250 167.241104,133.877365 165.044281,137.187576 
	C164.197540,138.463470 162.353073,139.077209 160.514648,139.992981 
z"/>
<path fill="#066BB7" opacity="1.000000" stroke="none" 
	d="
M123.540771,75.357040 
	C125.183601,78.298660 126.318756,81.167488 128.154495,83.480232 
	C132.587769,89.065491 131.369720,93.797882 128.571915,100.099327 
	C123.576065,111.351448 116.708557,115.867981 104.177704,114.456581 
	C97.453415,113.699196 94.216743,111.608841 90.377434,106.166130 
	C83.263710,96.081497 83.324188,87.738594 90.308151,77.633987 
	C94.111633,72.130997 97.113487,68.492020 104.160912,69.662544 
	C107.401070,70.200706 110.836021,70.042305 114.126686,69.684776 
	C118.678528,69.190216 121.857819,70.514961 123.540771,75.357040 
z"/>
<path fill="#1373BA" opacity="1.000000" stroke="none" 
	d="
M476.552795,127.152206 
	C476.552795,132.414597 476.552795,137.200974 476.552795,142.266174 
	C474.278046,142.266174 472.547943,142.266174 470.557495,142.266174 
	C470.557495,130.619904 470.557495,119.230064 470.557495,107.860847 
	C474.494904,106.441925 476.950836,107.568214 479.093323,110.920067 
	C483.247559,117.419243 487.799805,123.664001 493.100586,129.722702 
	C493.100586,122.509926 493.100586,115.297142 493.100586,107.579308 
	C495.278198,107.471870 497.005280,107.386658 499.112549,107.282684 
	C499.112549,119.044113 499.112549,130.437759 499.112549,141.962234 
	C495.427246,143.529053 493.064575,142.265656 490.934448,138.970947 
	C486.794769,132.567963 482.291412,126.400108 477.938690,120.134857 
	C477.476715,120.174644 477.014771,120.214432 476.552795,120.254219 
	C476.552795,122.394890 476.552795,124.535553 476.552795,127.152206 
z"/>
<path fill="#1373BA" opacity="1.000000" stroke="none" 
	d="
M480.649872,64.242264 
	C484.634949,69.925217 488.400513,75.320488 492.166046,80.715759 
	C492.508545,80.637451 492.851074,80.559143 493.193573,80.480835 
	C493.193573,73.139175 493.193573,65.797523 493.193573,58.252872 
	C495.460815,58.252872 497.070770,58.252872 499.461884,58.252872 
	C499.461884,64.066444 499.461884,69.816933 499.461884,75.567421 
	C499.461884,81.209648 499.461884,86.851875 499.461884,92.526863 
	C495.515381,93.920197 493.006195,93.077118 490.828827,89.671211 
	C486.743134,83.280273 482.235718,77.158905 476.796265,71.152054 
	C476.796265,78.302551 476.796265,85.453049 476.796265,92.868774 
	C474.328156,92.868774 472.585968,92.868774 470.284302,92.868774 
	C470.284302,82.893951 470.284302,73.107071 470.284302,63.320194 
	C470.284302,61.698124 470.284302,60.076054 470.284302,58.697636 
	C476.328033,56.359177 478.254974,60.372566 480.649872,64.242264 
z"/>
<path fill="#0C6EB8" opacity="1.000000" stroke="none" 
	d="
M193.112030,138.195999 
	C188.779816,146.018417 184.636292,153.522812 179.930099,162.046234 
	C176.344849,155.602539 173.190079,150.205338 170.382477,144.633209 
	C169.881454,143.638824 170.513824,141.758682 171.144424,140.562500 
	C174.092026,134.971130 177.076996,129.386673 180.385895,124.007179 
	C181.251175,122.600403 183.276321,121.175316 184.854996,121.071693 
	C190.317398,120.713097 195.817795,120.933464 202.434982,120.933464 
	C199.156113,127.015930 196.228424,132.446945 193.112030,138.195999 
z"/>
<path fill="#1875BC" opacity="1.000000" stroke="none" 
	d="
M429.745178,81.000671 
	C426.408173,63.252647 439.847107,54.836510 452.847137,58.329597 
	C460.736206,60.449371 465.492706,67.604660 465.230957,76.149124 
	C464.957397,85.077942 459.955078,91.380684 451.514313,93.431496 
	C443.285797,95.430740 435.368652,92.155701 431.427338,85.060936 
	C430.785583,83.905701 430.380371,82.619080 429.745178,81.000671 
M454.579956,65.855354 
	C449.259186,62.392944 444.386353,62.238693 440.290131,65.403030 
	C436.323090,68.467545 434.758179,74.653313 436.618439,80.432167 
	C438.143616,85.170197 441.356506,87.918945 446.444916,88.185089 
	C451.509644,88.449974 455.778381,85.968437 457.398987,81.332901 
	C459.243652,76.056465 459.137207,70.882530 454.579956,65.855354 
z"/>
<path fill="#1071BA" opacity="1.000000" stroke="none" 
	d="
M681.681396,76.711716 
	C681.706177,70.752129 681.725464,65.263184 681.763855,59.774368 
	C681.766113,59.455582 681.923584,59.137890 682.157471,58.264900 
	C683.699829,58.196049 685.411682,58.119633 687.494751,58.026646 
	C687.494751,69.786362 687.494751,81.169273 687.494751,92.611916 
	C683.769958,93.903412 681.253601,93.030304 679.084473,89.605721 
	C674.909790,83.014801 670.304871,76.696426 665.063965,69.081779 
	C665.063965,77.730659 665.063965,85.180153 665.063965,92.885727 
	C662.760986,92.999565 661.154968,93.078957 659.159180,93.177612 
	C659.159180,81.536324 659.159180,70.146683 659.159180,58.545731 
	C662.700684,57.199493 665.117004,58.269398 667.255432,61.587406 
	C671.366394,67.965820 675.861755,74.096451 680.795471,81.189125 
	C681.239075,79.179733 681.459595,78.181061 681.681396,76.711716 
z"/>
<path fill="#1674BB" opacity="1.000000" stroke="none" 
	d="
M399.425293,177.372498 
	C397.533905,160.358246 411.665558,153.201065 423.411163,156.979660 
	C431.144073,159.467361 436.050354,167.198868 435.207031,175.644379 
	C434.286835,184.859940 428.619446,190.992188 420.016510,192.080902 
	C410.793549,193.248077 403.305481,189.081177 400.429413,181.144318 
	C400.034912,180.055573 399.807495,178.906235 399.425293,177.372498 
M424.889160,164.516754 
	C419.273956,160.658783 413.531097,160.728943 409.483765,164.705002 
	C405.466278,168.651718 404.669006,176.177826 407.716125,181.391281 
	C410.397186,185.978439 415.913483,187.905380 421.137024,186.079407 
	C428.788818,183.404617 430.940582,172.893616 424.889160,164.516754 
z"/>
<path fill="#1473BB" opacity="1.000000" stroke="none" 
	d="
M652.959473,79.954132 
	C650.252686,89.637878 643.356567,94.640610 634.130737,93.952171 
	C625.409973,93.301422 619.050659,87.530304 617.815735,79.146347 
	C616.409973,69.602310 620.481323,61.844345 628.443970,58.894470 
	C637.143005,55.671787 646.873779,58.148956 650.654236,65.739929 
	C652.650208,69.747856 652.317810,74.915375 652.959473,79.954132 
M642.169495,65.121086 
	C637.418762,62.345100 632.606934,62.067535 628.334167,65.751938 
	C623.838440,69.628586 623.150269,74.761169 624.839478,80.286560 
	C626.332703,85.171227 630.114441,88.101830 635.022583,88.229385 
	C640.349976,88.367851 644.417847,85.720222 646.057861,80.736816 
	C647.911865,75.103134 647.087708,69.938614 642.169495,65.121086 
z"/>
<path fill="#1473BB" opacity="1.000000" stroke="none" 
	d="
M566.941650,187.984436 
	C558.473328,194.144196 548.078247,193.672409 541.670532,187.095917 
	C535.729065,180.997955 535.086304,169.552307 540.300049,162.691910 
	C545.851868,155.386627 557.700745,153.730774 565.478943,159.173203 
	C572.975098,164.418304 575.030823,176.542862 569.756897,184.686554 
	C569.041992,185.790436 568.066040,186.725204 566.941650,187.984436 
M548.984497,163.078964 
	C547.974976,163.937897 546.804688,164.666214 545.982910,165.677673 
	C541.715271,170.930222 542.592285,179.945511 547.703613,184.227020 
	C552.428955,188.185181 559.427246,187.513428 563.280212,182.731903 
	C566.752441,178.422897 567.058289,170.801697 563.937500,166.355225 
	C560.762634,161.831711 556.382874,160.717300 548.984497,163.078964 
z"/>
<path fill="#1976BC" opacity="1.000000" stroke="none" 
	d="
M554.935791,113.141235 
	C552.456665,113.140739 550.469971,113.140739 548.152100,113.140739 
	C548.152100,116.077286 548.152100,118.659912 548.152100,121.806793 
	C553.436279,121.806793 558.681580,121.806793 563.875916,121.806793 
	C565.392761,126.249001 564.077881,127.824127 559.921143,127.586143 
	C556.125488,127.368843 552.307556,127.540077 548.159424,127.540077 
	C548.159424,130.640289 548.159424,133.373459 548.159424,136.740570 
	C552.904480,136.740570 557.518555,136.922272 562.111145,136.686005 
	C566.154724,136.477966 567.768738,137.843964 566.392700,142.237274 
	C558.272766,142.237274 550.060913,142.237274 541.563232,142.237274 
	C541.563232,130.620056 541.563232,119.235054 541.563232,107.559448 
	C549.804688,107.559448 557.732788,107.559448 565.921875,107.559448 
	C567.442749,111.457329 566.537903,113.489311 561.923523,113.177231 
	C559.767517,113.031410 557.593933,113.145470 554.935791,113.141235 
z"/>
<path fill="#1171BA" opacity="1.000000" stroke="none" 
	d="
M508.359039,92.627487 
	C508.017822,81.034264 508.017822,69.786545 508.017822,57.560680 
	C514.519531,58.133667 520.672974,58.130646 526.581177,59.332794 
	C534.203552,60.883717 538.452637,68.397514 537.821106,77.565865 
	C537.233215,86.099533 532.262939,91.945053 524.128479,92.787819 
	C519.033997,93.315605 513.846191,92.942078 508.359039,92.627487 
M520.966064,87.871376 
	C529.641235,86.933739 532.591003,79.753647 530.802551,71.643929 
	C529.353271,65.072060 522.641479,62.272648 514.408142,64.597748 
	C514.408142,72.300987 514.408142,80.006783 514.408142,87.958321 
	C516.507446,87.958321 518.306824,87.958321 520.966064,87.871376 
z"/>
<path fill="#1976BC" opacity="1.000000" stroke="none" 
	d="
M401.618408,121.269363 
	C399.588928,113.054543 402.574371,107.870834 410.507904,107.117188 
	C415.380707,106.654320 420.418610,107.929581 426.209900,108.506851 
	C424.899567,111.448067 424.254791,112.895317 423.547577,114.482742 
	C420.382355,113.774696 417.463074,112.454666 414.683411,112.702263 
	C412.282684,112.916107 410.040741,114.912437 407.728607,116.120789 
	C409.405670,117.844032 410.813538,120.053741 412.827484,121.168221 
	C415.384705,122.583328 418.492889,122.960274 421.256836,124.054298 
	C425.515747,125.740028 427.187622,129.152405 426.932983,133.589508 
	C426.684937,137.911392 424.282471,140.786743 420.346771,142.106339 
	C413.309784,144.465744 406.666779,143.217758 400.339539,139.455566 
	C401.451477,135.529144 403.039795,133.984055 407.199341,135.896103 
	C409.740509,137.064209 413.037323,137.191116 415.882599,136.849976 
	C417.389709,136.669296 419.584290,134.600281 419.754730,133.178329 
	C419.905212,131.922562 417.940399,129.897827 416.437653,129.082886 
	C414.300995,127.924141 411.559967,127.895538 409.391632,126.775352 
	C406.681305,125.375168 404.290161,123.357170 401.618408,121.269363 
z"/>
<path fill="#1976BC" opacity="1.000000" stroke="none" 
	d="
M602.050049,189.176331 
	C598.453796,190.286240 595.152161,191.785004 591.814026,191.871033 
	C583.234985,192.092163 578.172180,186.904938 578.018677,178.336411 
	C577.911499,172.352722 578.035522,166.365250 577.981934,160.380127 
	C577.961121,158.050720 577.944641,156.141983 581.233154,156.131454 
	C584.347229,156.121506 584.722351,157.679245 584.676270,160.198883 
	C584.570007,166.016190 584.575500,171.837982 584.670044,177.655777 
	C584.759521,183.165588 587.448303,186.185135 592.157532,186.334351 
	C597.045227,186.489197 600.300476,183.319672 600.439087,177.783173 
	C600.613037,170.835617 600.480957,163.880386 600.480957,156.577911 
	C602.708496,156.577911 604.439209,156.577911 606.473877,156.577911 
	C606.473877,165.140915 606.759521,173.717575 606.284058,182.251831 
	C606.156494,184.541489 603.709961,186.701920 602.050049,189.176331 
z"/>
<path fill="#1674BB" opacity="1.000000" stroke="none" 
	d="
M502.513489,189.459595 
	C506.269714,179.289413 509.753845,169.438339 513.634460,159.746002 
	C514.203003,158.325974 516.647034,156.884644 518.242493,156.862762 
	C519.874390,156.840393 522.471497,158.177155 523.024536,159.565094 
	C527.010864,169.569595 530.590759,179.736221 534.270264,189.862091 
	C534.424622,190.286758 534.290039,190.816376 534.290039,191.408646 
	C530.418213,192.394409 527.509766,192.282745 526.354492,187.492432 
	C526.041870,186.196289 523.778259,185.030777 522.178284,184.484222 
	C520.690369,183.975967 518.872681,184.540543 517.236694,184.337662 
	C513.082275,183.822495 510.176056,184.778610 509.204895,189.474808 
	C509.000397,190.463852 506.931396,191.535507 505.624786,191.677155 
	C504.618256,191.786285 503.460083,190.497269 502.513489,189.459595 
M521.915100,178.871582 
	C521.130676,174.313049 520.346191,169.754517 519.561707,165.195984 
	C518.954590,165.180191 518.347412,165.164413 517.740234,165.148621 
	C516.218933,169.524261 514.697632,173.899918 512.935791,178.967361 
	C516.175354,178.967361 518.622253,178.967361 521.915100,178.871582 
z"/>
<path fill="#1674BB" opacity="1.000000" stroke="none" 
	d="
M615.551453,178.443665 
	C618.008789,171.844391 620.174866,165.549927 622.744751,159.424896 
	C623.271484,158.169479 625.268311,156.893204 626.662537,156.804291 
	C628.323547,156.698395 631.157410,157.426270 631.602844,158.542938 
	C635.895752,169.305038 639.792664,180.225143 643.864868,191.268234 
	C639.503418,192.401825 636.596436,192.287827 635.449768,187.478928 
	C635.141357,186.185654 632.835449,184.840973 631.239624,184.506165 
	C628.847900,184.004364 626.179199,183.964752 623.807739,184.509583 
	C622.073547,184.908005 619.582153,186.309082 619.244568,187.703094 
	C618.113281,192.374084 615.199036,192.181320 611.015259,191.482162 
	C612.536865,187.087189 613.969910,182.947800 615.551453,178.443665 
M628.138123,166.191605 
	C623.281311,169.048218 624.447388,174.276718 622.330566,178.609222 
	C626.144043,178.609222 629.020386,178.609222 632.485596,178.609222 
	C631.064087,174.342529 629.816345,170.597519 628.138123,166.191605 
z"/>
<path fill="#1473BB" opacity="1.000000" stroke="none" 
	d="
M439.371704,137.361481 
	C437.509705,143.153275 437.509705,143.153275 430.957001,141.858582 
	C434.938965,130.945068 438.797455,120.070915 442.993317,109.328522 
	C443.417297,108.243065 445.884460,107.425682 447.391785,107.443993 
	C448.868347,107.461914 451.220062,108.354874 451.659943,109.467667 
	C455.852142,120.072838 459.719330,130.806503 463.797333,141.820511 
	C459.653595,143.157303 456.605957,143.351517 455.697479,138.420349 
	C455.175720,135.588516 453.320190,134.606857 450.625702,135.048813 
	C446.921692,135.656357 443.229218,136.334412 439.371704,137.361481 
M446.292480,117.030563 
	C444.976410,121.029877 443.660309,125.029190 442.236847,129.354828 
	C446.058197,129.354828 449.020721,129.354828 453.334290,129.354828 
	C450.813904,124.433670 448.765747,120.434570 446.292480,117.030563 
z"/>
<path fill="#1875BC" opacity="1.000000" stroke="none" 
	d="
M663.992676,163.080963 
	C668.736755,155.091400 678.289001,153.588211 687.804565,159.123749 
	C687.692993,159.696243 687.672058,160.373749 687.422363,160.952530 
	C687.041138,161.835907 686.501831,162.651077 686.121887,163.330215 
	C682.592102,162.777557 679.299561,161.713150 676.111755,161.966614 
	C674.166138,162.121292 672.381714,164.303650 670.524963,165.575317 
	C671.974121,167.109589 673.159790,169.172699 674.933105,170.056274 
	C677.715088,171.442337 680.956360,171.869370 683.889038,172.998917 
	C687.964417,174.568588 689.589172,177.936401 689.492371,182.091782 
	C689.399353,186.084946 687.515076,189.238663 683.730042,190.653488 
	C676.606934,193.316071 669.837036,192.130112 662.904053,188.266800 
	C664.024292,186.382126 664.902649,184.904404 665.438599,184.002747 
	C669.926697,184.793335 673.771179,185.944702 677.612000,185.932892 
	C679.347839,185.927567 681.076599,183.608429 682.808533,182.339035 
	C681.503174,180.840637 680.464783,178.849594 678.828064,177.962692 
	C676.540894,176.723328 673.774963,176.399719 671.270874,175.521866 
	C664.815308,173.258789 663.141296,170.464172 663.992676,163.080963 
z"/>
<path fill="#1674BB" opacity="1.000000" stroke="none" 
	d="
M556.726379,58.021347 
	C558.034302,58.603935 559.448669,58.983570 559.755615,59.786560 
	C563.900208,70.629128 567.890808,81.530556 571.986328,92.598030 
	C567.903564,93.679115 564.915649,93.855690 563.503052,89.076851 
	C563.085999,87.665764 560.731018,86.414795 559.022095,85.910255 
	C557.183350,85.367416 555.038513,85.974831 553.066101,85.745956 
	C549.747742,85.360893 547.710449,86.332443 547.057983,89.886330 
	C546.154236,94.808823 542.459595,92.721443 538.857910,93.219215 
	C543.152771,81.596512 547.052612,70.687881 551.350708,59.938534 
	C551.799927,58.814972 554.605652,58.633675 556.726379,58.021347 
M559.919861,77.813614 
	C558.575989,73.994019 557.232117,70.174431 555.477173,65.186623 
	C553.475159,70.989548 551.900024,75.554970 550.324890,80.120392 
	C550.693237,80.601837 551.061584,81.083282 551.429871,81.564728 
	C554.307495,80.588531 557.185059,79.612328 559.919861,77.813614 
z"/>
<path fill="#1674BB" opacity="1.000000" stroke="none" 
	d="
M444.438721,188.620758 
	C442.879181,185.564697 440.669830,182.830231 440.471497,179.956940 
	C439.947113,172.359634 440.293823,164.702194 440.293823,156.648407 
	C442.303406,156.648407 444.160370,156.648407 446.620972,156.648407 
	C446.620972,163.238876 446.307007,169.709076 446.761841,176.124756 
	C446.969513,179.054001 447.951721,182.589783 449.884399,184.597198 
	C453.873383,188.740387 461.273407,186.159912 462.191406,180.325195 
	C463.011017,175.115555 462.728729,169.729065 462.878815,164.419098 
	C462.948578,161.950470 462.890686,159.478241 462.890686,157.118210 
	C468.672852,155.563492 468.996826,155.783051 469.026520,161.144653 
	C469.054169,166.137436 468.927856,171.133484 469.066711,176.122589 
	C469.228180,181.922775 468.353363,187.360107 462.614746,190.165329 
	C456.559723,193.125198 450.407135,193.029160 444.438721,188.620758 
z"/>
<path fill="#1674BB" opacity="1.000000" stroke="none" 
	d="
M413.144562,63.956879 
	C411.223694,64.053551 409.781708,64.150154 407.986603,64.270409 
	C407.986603,66.416473 407.568481,68.356918 408.118958,69.965996 
	C408.559052,71.252357 410.049866,72.821815 411.299652,73.054298 
	C413.868896,73.532219 416.589478,73.169090 419.246887,73.209389 
	C421.318878,73.240814 424.224091,72.653954 423.487732,76.097038 
	C423.244995,77.232048 420.957977,78.437218 419.454407,78.682404 
	C416.865204,79.104607 414.153687,78.886581 411.500427,78.774338 
	C408.965759,78.667114 407.864594,79.676857 407.952057,82.264359 
	C408.068451,85.708481 407.980804,89.159500 407.980804,92.874374 
	C405.633972,92.874374 403.885529,92.874374 401.803802,92.874374 
	C401.803802,81.380829 401.803802,70.013237 401.803802,58.324146 
	C409.866516,58.324146 417.762177,58.324146 426.085602,58.324146 
	C426.085602,60.038597 426.085602,61.727673 426.085602,63.956818 
	C421.843445,63.956818 417.733429,63.956818 413.144562,63.956879 
z"/>
<path fill="#1F7ABE" opacity="1.000000" stroke="none" 
	d="
M523.934143,126.009552 
	C523.934143,131.634216 523.934143,136.762131 523.934143,142.244171 
	C521.610962,142.244171 519.735901,142.244171 517.393799,142.244171 
	C517.393799,132.761414 517.393799,123.505280 517.393799,113.715714 
	C513.259644,113.534058 509.540039,113.370621 505.554993,113.195526 
	C505.554993,111.299385 505.554993,109.699654 505.554993,107.672623 
	C515.414429,107.672623 525.268677,107.672623 535.444214,107.672623 
	C535.444214,109.465645 535.444214,111.182755 535.444214,113.368195 
	C531.730957,113.368195 528.286804,113.368195 523.934143,113.368195 
	C523.934143,117.714302 523.934143,121.613556 523.934143,126.009552 
z"/>
<path fill="#1B77BD" opacity="1.000000" stroke="none" 
	d="
M485.365295,184.848038 
	C485.365448,177.393005 485.365448,170.417740 485.365448,162.580139 
	C482.780365,162.580139 480.522766,162.414886 478.298218,162.615585 
	C474.067627,162.997269 472.268311,161.548401 473.829590,156.920776 
	C483.510315,156.920776 493.260345,156.920776 503.187683,156.920776 
	C504.604218,160.946320 503.765564,163.029343 499.119202,162.612091 
	C496.995148,162.421341 494.839752,162.579651 492.087769,162.579651 
	C492.087769,172.404190 492.087769,181.811447 492.087769,191.524323 
	C489.727448,191.524323 487.974487,191.524323 485.365173,191.524323 
	C485.365173,189.470596 485.365173,187.399185 485.365295,184.848038 
z"/>
<path fill="#1976BC" opacity="1.000000" stroke="none" 
	d="
M579.772339,63.985298 
	C576.349121,63.968838 573.387329,63.968838 570.102600,63.968838 
	C570.102600,61.936569 570.102600,60.363621 570.102600,58.031296 
	C579.520020,58.031296 588.768921,57.876358 597.997681,58.237480 
	C599.088135,58.280148 600.067871,61.151535 601.858337,63.860771 
	C596.333435,63.860771 592.735840,63.860771 588.551880,63.860771 
	C588.551880,73.671227 588.551880,83.050560 588.551880,92.789009 
	C586.219055,92.789009 584.484131,92.789009 581.995605,92.789009 
	C581.995605,84.698090 582.084717,76.602547 581.916077,68.512383 
	C581.884521,66.997810 580.821106,65.504745 579.772339,63.985298 
z"/>
<path fill="#237CC0" opacity="1.000000" stroke="none" 
	d="
M649.190918,178.983063 
	C649.192322,172.182037 649.289001,165.876022 649.149963,159.575195 
	C649.091187,156.907684 650.288452,155.632721 652.647644,156.285156 
	C653.928406,156.639374 655.763916,158.265091 655.792236,159.357620 
	C656.041382,168.972992 655.933594,178.597427 655.945007,188.219193 
	C655.950989,193.238937 652.532532,191.307098 649.190979,191.407120 
	C649.190979,187.287140 649.190979,183.383652 649.190918,178.983063 
z"/>
<path fill="#217ABE" opacity="1.000000" stroke="none" 
	d="
M605.397949,92.043930 
	C605.279602,80.582954 605.279602,69.522865 605.279602,58.224609 
	C607.676758,58.224609 609.427551,58.224609 611.509644,58.224609 
	C611.509644,69.813332 611.509644,81.184349 611.509644,93.405151 
	C609.459106,93.076591 607.487671,92.760704 605.397949,92.043930 
z"/>
<path fill="#237CC0" opacity="1.000000" stroke="none" 
	d="
M551.884399,103.632828 
	C553.589966,101.420097 555.150085,99.511772 556.888611,97.385277 
	C558.470032,98.382500 559.822815,99.235565 561.196228,100.101654 
	C557.511963,105.064438 555.854492,105.704742 551.884399,103.632828 
z"/>
<path fill="#076BB7" opacity="1.000000" stroke="none" 
	d="
M177.913864,184.939240 
	C177.910934,185.198181 177.958023,185.473495 177.938492,185.744003 
	C177.934204,185.803436 177.693207,185.845795 177.561218,185.896027 
	C177.579391,185.643570 177.597565,185.391113 177.802673,185.062897 
	C177.989609,184.987137 177.939926,184.953888 177.913864,184.939240 
z"/>
<path fill="#086CB7" opacity="1.000000" stroke="none" 
	d="
M354.802429,128.791382 
	C354.825958,128.800949 355.219299,128.745056 355.219299,128.745056 
	C355.219299,128.745056 355.003693,128.832626 354.874573,128.787720 
	C354.745483,128.742828 354.778900,128.781799 354.802429,128.791382 
z"/>
<path fill="#F8FBFD" opacity="1.000000" stroke="none" 
	d="
M454.856506,66.127548 
	C459.137207,70.882530 459.243652,76.056465 457.398987,81.332901 
	C455.778381,85.968437 451.509644,88.449974 446.444916,88.185089 
	C441.356506,87.918945 438.143616,85.170197 436.618439,80.432167 
	C434.758179,74.653313 436.323090,68.467545 440.290131,65.403030 
	C444.386353,62.238693 449.259186,62.392944 454.856506,66.127548 
z"/>
<path fill="#F7FAFD" opacity="1.000000" stroke="none" 
	d="
M425.164124,164.790558 
	C430.940582,172.893616 428.788818,183.404617 421.137024,186.079407 
	C415.913483,187.905380 410.397186,185.978439 407.716125,181.391281 
	C404.669006,176.177826 405.466278,168.651718 409.483765,164.705002 
	C413.531097,160.728943 419.273956,160.658783 425.164124,164.790558 
z"/>
<path fill="#F7FAFD" opacity="1.000000" stroke="none" 
	d="
M642.473022,65.353165 
	C647.087708,69.938614 647.911865,75.103134 646.057861,80.736816 
	C644.417847,85.720222 640.349976,88.367851 635.022583,88.229385 
	C630.114441,88.101830 626.332703,85.171227 624.839478,80.286560 
	C623.150269,74.761169 623.838440,69.628586 628.334167,65.751938 
	C632.606934,62.067535 637.418762,62.345100 642.473022,65.353165 
z"/>
<path fill="#F7FAFD" opacity="1.000000" stroke="none" 
	d="
M549.348511,162.907425 
	C556.382874,160.717300 560.762634,161.831711 563.937500,166.355225 
	C567.058289,170.801697 566.752441,178.422897 563.280212,182.731903 
	C559.427246,187.513428 552.428955,188.185181 547.703613,184.227020 
	C542.592285,179.945511 541.715271,170.930222 545.982910,165.677673 
	C546.804688,164.666214 547.974976,163.937897 549.348511,162.907425 
z"/>
<path fill="#F7FAFD" opacity="1.000000" stroke="none" 
	d="
M520.536133,87.914848 
	C518.306824,87.958321 516.507446,87.958321 514.408142,87.958321 
	C514.408142,80.006783 514.408142,72.300987 514.408142,64.597748 
	C522.641479,62.272648 529.353271,65.072060 530.802551,71.643929 
	C532.591003,79.753647 529.641235,86.933739 520.536133,87.914848 
z"/>
<path fill="#E0EDF6" opacity="1.000000" stroke="none" 
	d="
M521.492126,178.919464 
	C518.622253,178.967361 516.175354,178.967361 512.935791,178.967361 
	C514.697632,173.899918 516.218933,169.524261 517.740234,165.148621 
	C518.347412,165.164413 518.954590,165.180191 519.561707,165.195984 
	C520.346191,169.754517 521.130676,174.313049 521.492126,178.919464 
z"/>
<path fill="#E0EDF6" opacity="1.000000" stroke="none" 
	d="
M628.353394,166.522064 
	C629.816345,170.597519 631.064087,174.342529 632.485596,178.609222 
	C629.020386,178.609222 626.144043,178.609222 622.330566,178.609222 
	C624.447388,174.276718 623.281311,169.048218 628.353394,166.522064 
z"/>
<path fill="#E0EDF6" opacity="1.000000" stroke="none" 
	d="
M446.505066,116.733017 
	C448.765747,120.434570 450.813904,124.433670 453.334290,129.354828 
	C449.020721,129.354828 446.058197,129.354828 442.236847,129.354828 
	C443.660309,125.029190 444.976410,121.029877 446.505066,116.733017 
z"/>
<path fill="#E0EDF6" opacity="1.000000" stroke="none" 
	d="
M559.991272,78.224869 
	C557.185059,79.612328 554.307495,80.588531 551.429871,81.564728 
	C551.061584,81.083282 550.693237,80.601837 550.324890,80.120392 
	C551.900024,75.554970 553.475159,70.989548 555.477173,65.186623 
	C557.232117,70.174431 558.575989,73.994019 559.991272,78.224869 
z"/>
</svg>